<?xml version="1.0" encoding="UTF-8"?><svg id="Layer_2" xmlns="http://www.w3.org/2000/svg" viewBox="0 0 536.6 501.13"><defs><style>.cls-1{fill:#e97462;}.cls-1,.cls-2{stroke-width:0px;}.cls-2{fill:#370e4a;}</style></defs><g id="Layer_1-2"><path class="cls-2" d="M449.84,329.64c1.72-9.13,4.16-23.58,5.89-41.44,4.63-47.72,8.38-99.43-15.44-153.17-23.39-52.76-64.89-81.2-120.6-89.09-39.08-5.54-77.06-1.71-111.84,18.73-48.34,28.4-80.09,69.43-90.24,126.04-7,39.05,8.16,67.65,40.79,88.02,20.61,12.87,46.52,24.45,88,17.81-13.72,30.08-50.58,64-91.97,55.74-42.84-8.55-77.61-28.12-98.76-67.93-15.42-29.03-17.01-60.34-12.51-92.48,6.01-42.96,27.15-78.22,55.37-109.13C153.94,22.07,223.23-4.97,304.47.75c39.86,2.8,77.93,14.24,110.47,37.77,15.87,11.47,28.04,28.88,40.02,45.02,17.42,23.45,29.25,50.01,35.83,78.74,5.53,24.12,6.61,47.94,2.97,71.27-.66,4.2-3.75,22.65-13.16,44.84-1.69,3.98-9.38,21.77-24.04,42.31-2.13,2.98-3.97,5.42-5.3,7.13-.48.6-.95,1.2-1.43,1.8Z"/><path class="cls-2" d="M160.35,410.08c13.09-12.21,26.49-24.08,39.21-36.68,33.05-32.74,63.17-68,84.36-109.96,6.89-13.64,12.2-28.64,15.21-43.64,4.41-21.97-8.68-33.37-30.38-28.73-25.86,5.53-48.17,18.98-70.44,32.48-4.65,2.82-9.18,5.83-13.76,8.75-.56-.63-1.12-1.27-1.68-1.9,6.4-6.78,12.17-14.36,19.32-20.2,41.84-34.19,89.37-53.64,143.51-54.85,6.3-.14,12.88.83,18.92,2.68,21.4,6.54,28.43,21.54,22.1,43.33-5.71,19.67-18.45,34.65-30.6,50.07-40.44,51.32-85.4,97.87-140.86,132.73-15.33,9.64-32.01,17.08-48.12,25.42-1.88.97-4.13,1.23-6.21,1.82-.19-.44-.38-.89-.58-1.33Z"/><path class="cls-2" d="M205.05,405.25c14.04-9.97,28.3-19.64,42.09-29.96,28.32-21.19,54.74-44.55,78.19-71.29,10.69-12.19,22.96-22.35,39.34-25.73,8.56-1.77,17.03-1.41,23.22,5.72,6.44,7.42,5.64,16.12,2.34,24.77-5.86,15.37-17.13,26.24-29.63,35.94-33.53,26.04-71.84,41.75-112.29,52.57-14.1,3.77-28.47,6.54-42.71,9.77-.18-.6-.36-1.2-.55-1.79Z"/><path class="cls-2" d="M294.13,146.17c6.58-3.04,13.08-6.03,21.2-9.77-11.14-3.11-20.01-5.59-28.19-7.88,5.51-4.29,10.35-8.05,15.18-11.81-4.66-4.87-9.32-9.74-13.9-14.52,9.47-3.44,20.34-6.78,30.7-11.3,11.23-4.9,21.8-11.38,33.02-16.3,12.24-5.36,24.93-5.76,35.39,3.76,11.35,10.33,10.74,24.26,7.75,37.91-2.7,12.33-10.35,20.97-21.57,26.56-16.71,8.33-60.97,10.36-79.58,3.35Z"/><path class="cls-2" d="M384.33,238.15c5.38-19.55,10.6-38.53,15.81-57.45,12.69,12.16,28.35,8.56,46.41,2.35-18.88,23.53-38.74,41.54-62.22,55.1Z"/><path class="cls-1" d="M411.92,36.38c11.96,10.43,27.73,26.1,42.67,47.79,11.76,17.08,29.65,43.71,37.17,82.52,12.2,63-12.06,113.43-18.7,126.73-.81,1.62-9.26,18.37-21.79,34.41-45.53,58.27-150.77,114.55-268.7,109.36-83.89-3.69-147.45-37.32-182.57-60.25,29,39.19,58.6,59.55,81.8,70.98,12.77,6.29,30.36,13.2,29.38,16.53-1.1,3.77-25.37.6-47.96-3.13,14.82,9.05,44.23,24.27,84.56,27.76,30.78,2.66,55.89-2.55,71.38-7.04-2.32,3.12-6.42,7.8-12.9,11.74-8.48,5.16-16.66,6.38-20.96,6.73,17.87,1.27,44.74,1.19,75.95-6.6,31.38-7.82,55.01-20.4,70.01-29.9-.31,2.89-1.37,8.96-5.95,14.95-6.26,8.18-14.9,10.74-17.62,11.43,20.55.09,86.94-2.09,145.28-48.81,47.15-37.76,63.23-83.95,71.19-107.87,4.17-12.52,37.58-119.63-26.35-217.56-28.52-43.69-64.95-67.97-85.91-79.79Z"/></g></svg>